<svg width="24" height="24" viewBox="0 0 24 24" fill="none" xmlns="http://www.w3.org/2000/svg">
<path fill-rule="evenodd" clip-rule="evenodd" d="M5.2 1.25L5.16957 1.25C4.63541 1.24999 4.18956 1.24998 3.82533 1.27974C3.44545 1.31078 3.08879 1.37789 2.75153 1.54973C2.23408 1.81338 1.81338 2.23408 1.54973 2.75153C1.37789 3.08879 1.31078 3.44545 1.27974 3.82533C1.24998 4.18956 1.24999 4.63541 1.25 5.16957L1.25 5.2V8.8L1.25 8.83044C1.24999 9.36459 1.24998 9.81044 1.27974 10.1747C1.31078 10.5546 1.37789 10.9112 1.54973 11.2485C1.81338 11.7659 2.23408 12.1866 2.75153 12.4503C3.08879 12.6221 3.44545 12.6892 3.82533 12.7203C4.18955 12.75 4.63538 12.75 5.16951 12.75H5.16955H5.2H6.8H6.83045H6.83049C7.36462 12.75 7.81045 12.75 8.17467 12.7203C8.55456 12.6892 8.91121 12.6221 9.24847 12.4503C9.76592 12.1866 10.1866 11.7659 10.4503 11.2485C10.6221 10.9112 10.6892 10.5546 10.7203 10.1747C10.75 9.81045 10.75 9.36462 10.75 8.83049V8.83045V8.8V5.2V5.16955V5.16951C10.75 4.63538 10.75 4.18955 10.7203 3.82533C10.6892 3.44545 10.6221 3.08879 10.4503 2.75153C10.1866 2.23408 9.76592 1.81338 9.24847 1.54973C8.91121 1.37789 8.55456 1.31078 8.17467 1.27974C7.81044 1.24998 7.36459 1.24999 6.83044 1.25L6.8 1.25H5.2ZM3.43251 2.88624C3.52307 2.8401 3.66036 2.79822 3.94748 2.77476C4.24336 2.75058 4.62757 2.75 5.2 2.75H6.8C7.37243 2.75 7.75664 2.75058 8.05252 2.77476C8.33965 2.79822 8.47693 2.8401 8.56749 2.88624C8.80269 3.00608 8.99392 3.19731 9.11376 3.43251C9.1599 3.52307 9.20178 3.66036 9.22524 3.94748C9.24942 4.24336 9.25 4.62757 9.25 5.2V8.8C9.25 9.37243 9.24942 9.75664 9.22524 10.0525C9.20178 10.3396 9.1599 10.4769 9.11376 10.5675C8.99392 10.8027 8.80269 10.9939 8.56749 11.1138C8.47693 11.1599 8.33965 11.2018 8.05252 11.2252C7.75664 11.2494 7.37243 11.25 6.8 11.25H5.2C4.62757 11.25 4.24336 11.2494 3.94748 11.2252C3.66036 11.2018 3.52307 11.1599 3.43251 11.1138C3.19731 10.9939 3.00608 10.8027 2.88624 10.5675C2.8401 10.4769 2.79822 10.3396 2.77476 10.0525C2.75058 9.75664 2.75 9.37243 2.75 8.8V5.2C2.75 4.62757 2.75058 4.24336 2.77476 3.94748C2.79822 3.66036 2.8401 3.52307 2.88624 3.43251C3.00608 3.19731 3.19731 3.00608 3.43251 2.88624ZM5 15.25H4.97475C4.53029 15.25 4.15925 15.25 3.85464 15.2708C3.53754 15.2924 3.23801 15.339 2.94762 15.4593C2.27379 15.7384 1.73844 16.2738 1.45933 16.9476C1.33905 17.238 1.29241 17.5375 1.27077 17.8546C1.24999 18.1592 1.24999 18.5303 1.25 18.9747L1.25 19L1.25 19.0253C1.24999 19.4697 1.24999 19.8408 1.27077 20.1454C1.29241 20.4625 1.33905 20.762 1.45933 21.0524C1.73844 21.7262 2.27379 22.2616 2.94762 22.5407C3.23801 22.661 3.53754 22.7076 3.85464 22.7292C4.15925 22.75 4.53028 22.75 4.97474 22.75H5H7H7.02526C7.46972 22.75 7.84075 22.75 8.14537 22.7292C8.46247 22.7076 8.76199 22.661 9.05238 22.5407C9.72621 22.2616 10.2616 21.7262 10.5407 21.0524C10.661 20.762 10.7076 20.4625 10.7292 20.1454C10.75 19.8408 10.75 19.4697 10.75 19.0253V19V18.9747C10.75 18.5303 10.75 18.1592 10.7292 17.8546C10.7076 17.5375 10.661 17.238 10.5407 16.9476C10.2616 16.2738 9.72621 15.7384 9.05238 15.4593C8.76199 15.339 8.46247 15.2924 8.14537 15.2708C7.84075 15.25 7.46971 15.25 7.02525 15.25H7H5ZM3.52165 16.8452C3.5988 16.8132 3.71602 16.7837 3.95674 16.7673C4.20421 16.7504 4.5238 16.75 5 16.75H7C7.4762 16.75 7.7958 16.7504 8.04326 16.7673C8.28399 16.7837 8.4012 16.8132 8.47836 16.8452C8.78464 16.972 9.02798 17.2154 9.15485 17.5216C9.18681 17.5988 9.21629 17.716 9.23271 17.9567C9.24959 18.2042 9.25 18.5238 9.25 19C9.25 19.4762 9.24959 19.7958 9.23271 20.0433C9.21629 20.284 9.18681 20.4012 9.15485 20.4784C9.02798 20.7846 8.78464 21.028 8.47836 21.1549C8.4012 21.1868 8.28399 21.2163 8.04326 21.2327C7.7958 21.2496 7.4762 21.25 7 21.25H5C4.5238 21.25 4.20421 21.2496 3.95674 21.2327C3.71602 21.2163 3.5988 21.1868 3.52165 21.1549C3.21536 21.028 2.97202 20.7846 2.84515 20.4784C2.81319 20.4012 2.78372 20.284 2.76729 20.0433C2.75041 19.7958 2.75 19.4762 2.75 19C2.75 18.5238 2.75041 18.2042 2.76729 17.9567C2.78372 17.716 2.81319 17.5988 2.84515 17.5216C2.97202 17.2154 3.21536 16.972 3.52165 16.8452ZM16.9747 1.25L17 1.25H19L19.0253 1.25C19.4697 1.24999 19.8408 1.24999 20.1454 1.27077C20.4625 1.29241 20.762 1.33905 21.0524 1.45933C21.7262 1.73844 22.2616 2.27379 22.5407 2.94762C22.661 3.23801 22.7076 3.53754 22.7292 3.85464C22.75 4.15925 22.75 4.53028 22.75 4.97474V5V5.02526C22.75 5.46972 22.75 5.84075 22.7292 6.14537C22.7076 6.46247 22.661 6.76199 22.5407 7.05238C22.2616 7.72621 21.7262 8.26156 21.0524 8.54067C20.762 8.66095 20.4625 8.7076 20.1454 8.72923C19.8408 8.75001 19.4697 8.75001 19.0253 8.75H19H17H16.9747C16.5303 8.75001 16.1592 8.75001 15.8546 8.72923C15.5375 8.7076 15.238 8.66095 14.9476 8.54067C14.2738 8.26156 13.7384 7.72621 13.4593 7.05238C13.339 6.76199 13.2924 6.46247 13.2708 6.14537C13.25 5.84075 13.25 5.46971 13.25 5.02525V5V4.97475C13.25 4.53029 13.25 4.15925 13.2708 3.85464C13.2924 3.53754 13.339 3.23801 13.4593 2.94762C13.7384 2.27379 14.2738 1.73844 14.9476 1.45933C15.238 1.33905 15.5375 1.29241 15.8546 1.27077C16.1592 1.24999 16.5303 1.24999 16.9747 1.25ZM15.9567 2.76729C15.716 2.78372 15.5988 2.81319 15.5216 2.84515C15.2154 2.97202 14.972 3.21536 14.8452 3.52165C14.8132 3.5988 14.7837 3.71602 14.7673 3.95674C14.7504 4.20421 14.75 4.5238 14.75 5C14.75 5.4762 14.7504 5.7958 14.7673 6.04326C14.7837 6.28399 14.8132 6.4012 14.8452 6.47836C14.972 6.78464 15.2154 7.02798 15.5216 7.15485C15.5988 7.18681 15.716 7.21629 15.9567 7.23271C16.2042 7.24959 16.5238 7.25 17 7.25H19C19.4762 7.25 19.7958 7.24959 20.0433 7.23271C20.284 7.21629 20.4012 7.18681 20.4784 7.15485C20.7846 7.02798 21.028 6.78464 21.1549 6.47836C21.1868 6.4012 21.2163 6.28399 21.2327 6.04326C21.2496 5.7958 21.25 5.4762 21.25 5C21.25 4.5238 21.2496 4.20421 21.2327 3.95674C21.2163 3.71602 21.1868 3.5988 21.1549 3.52165C21.028 3.21536 20.7846 2.97202 20.4784 2.84515C20.4012 2.81319 20.284 2.78372 20.0433 2.76729C19.7958 2.75041 19.4762 2.75 19 2.75H17C16.5238 2.75 16.2042 2.75041 15.9567 2.76729ZM17.2 11.25H17.1696C16.6354 11.25 16.1896 11.25 15.8253 11.2797C15.4454 11.3108 15.0888 11.3779 14.7515 11.5497C14.2341 11.8134 13.8134 12.2341 13.5497 12.7515C13.3779 13.0888 13.3108 13.4454 13.2797 13.8253C13.25 14.1896 13.25 14.6354 13.25 15.1696V15.2V18.8V18.8304C13.25 19.3646 13.25 19.8104 13.2797 20.1747C13.3108 20.5546 13.3779 20.9112 13.5497 21.2485C13.8134 21.7659 14.2341 22.1866 14.7515 22.4503C15.0888 22.6221 15.4454 22.6892 15.8253 22.7203C16.1895 22.75 16.6353 22.75 17.1694 22.75H17.1695H17.2H18.8H18.8305H18.8306C19.3647 22.75 19.8105 22.75 20.1747 22.7203C20.5546 22.6892 20.9112 22.6221 21.2485 22.4503C21.7659 22.1866 22.1866 21.7659 22.4503 21.2485C22.6221 20.9112 22.6892 20.5546 22.7203 20.1747C22.75 19.8105 22.75 19.3647 22.75 18.8306V18.8305V18.8V15.2V15.1695V15.1694C22.75 14.6353 22.75 14.1895 22.7203 13.8253C22.6892 13.4454 22.6221 13.0888 22.4503 12.7515C22.1866 12.2341 21.7659 11.8134 21.2485 11.5497C20.9112 11.3779 20.5546 11.3108 20.1747 11.2797C19.8104 11.25 19.3646 11.25 18.8304 11.25H18.8H17.2ZM15.4325 12.8862C15.5231 12.8401 15.6604 12.7982 15.9475 12.7748C16.2434 12.7506 16.6276 12.75 17.2 12.75H18.8C19.3724 12.75 19.7566 12.7506 20.0525 12.7748C20.3396 12.7982 20.4769 12.8401 20.5675 12.8862C20.8027 13.0061 20.9939 13.1973 21.1138 13.4325C21.1599 13.5231 21.2018 13.6604 21.2252 13.9475C21.2494 14.2434 21.25 14.6276 21.25 15.2V18.8C21.25 19.3724 21.2494 19.7566 21.2252 20.0525C21.2018 20.3396 21.1599 20.4769 21.1138 20.5675C20.9939 20.8027 20.8027 20.9939 20.5675 21.1138C20.4769 21.1599 20.3396 21.2018 20.0525 21.2252C19.7566 21.2494 19.3724 21.25 18.8 21.25H17.2C16.6276 21.25 16.2434 21.2494 15.9475 21.2252C15.6604 21.2018 15.5231 21.1599 15.4325 21.1138C15.1973 20.9939 15.0061 20.8027 14.8862 20.5675C14.8401 20.4769 14.7982 20.3396 14.7748 20.0525C14.7506 19.7566 14.75 19.3724 14.75 18.8V15.2C14.75 14.6276 14.7506 14.2434 14.7748 13.9475C14.7982 13.6604 14.8401 13.5231 14.8862 13.4325C15.0061 13.1973 15.1973 13.0061 15.4325 12.8862Z" fill="#666666"/>
</svg>
