<svg width="24" height="24" viewBox="0 0 24 24" fill="none" xmlns="http://www.w3.org/2000/svg">
<path d="M5.36607 20.7615L5.92135 20.2573H5.92135L5.36607 20.7615ZM6.5 21.5262L6.125 22.1758H6.125L6.5 21.5262ZM4.85291 19.2612L5.60063 19.3196L4.85291 19.2612ZM5.28094 17.9621L4.58671 17.6783H4.58671L5.28094 17.9621ZM5.07824 16.0138L4.429 16.3893L4.42978 16.3906L5.07824 16.0138ZM5.06149 15.9848L4.41146 16.359L4.41225 16.3603L5.06149 15.9848ZM3.47707 14.8378L3.57841 14.0947H3.57841L3.47707 14.8378ZM2.13807 14.559L1.81485 15.2358L1.81485 15.2358L2.13807 14.559ZM1.09535 13.3644L1.8096 13.1356H1.8096L1.09535 13.3644ZM1.09535 10.6356L1.8096 10.8645L1.8096 10.8645L1.09535 10.6356ZM2.13807 9.44108L1.81485 8.76431H1.81485L2.13807 9.44108ZM3.47708 9.16226L3.57841 9.90538H3.57841L3.47708 9.16226ZM5.06148 8.01524L4.41224 7.63975L4.41146 7.64112L5.06148 8.01524ZM5.07823 7.98628L4.42978 7.60944L4.42899 7.61079L5.07823 7.98628ZM5.28094 6.03793L5.97527 5.75409L5.9703 5.74249L5.28094 6.03793ZM5.28094 6.03792L4.57609 6.29423C4.58089 6.30741 4.58605 6.32046 4.59158 6.33336L5.28094 6.03792ZM5.28093 6.0379L5.98577 5.7816C5.98242 5.77236 5.97888 5.7632 5.97516 5.7541L5.28093 6.0379ZM4.85291 4.7389L5.60063 4.68044V4.68044L4.85291 4.7389ZM5.36607 3.23861L4.81078 2.73447L5.36607 3.23861ZM6.5 2.47383L6.875 3.12335C6.88894 3.1153 6.90262 3.1068 6.91602 3.09787L6.5 2.47383ZM6.5 2.47383L6.13751 1.81724C6.11922 1.82734 6.10136 1.8382 6.08397 1.84979L6.5 2.47383ZM6.50001 2.47382L6.86249 3.13041C6.86669 3.12809 6.87086 3.12574 6.875 3.12334L6.50001 2.47382ZM7.72928 1.87421L7.88824 2.60717L7.72928 1.87421ZM9.28515 2.17995L9.70964 1.56164V1.56164L9.28515 2.17995ZM10.1961 3.20015L10.789 2.74083V2.74083L10.1961 3.20015ZM11.9837 4.00005L11.9829 3.25005L11.9822 3.25005L11.9837 4.00005ZM12 4.00004L12.0007 3.25003L11.9992 3.25004L12 4.00004ZM12.0161 4.00005L12.0175 3.25005L12.0168 3.25005L12.0161 4.00005ZM13.8039 3.2L14.3968 3.65932V3.65932L13.8039 3.2ZM14.7148 2.1798L14.2903 1.56149V1.56149L14.7148 2.1798ZM16.2707 1.87406L16.1118 2.60702L16.2707 1.87406ZM17.5 2.47368L17.125 3.1232V3.1232L17.5 2.47368ZM18.6339 3.23846L19.1892 2.73432L19.1892 2.73432L18.6339 3.23846ZM19.1471 4.73876L18.3994 4.68029V4.68029L19.1471 4.73876ZM18.7191 6.03776L18.0248 5.75396C18.0163 5.77469 18.0088 5.79579 18.0022 5.8172L18.7191 6.03776ZM18.719 6.03778L19.4133 6.32158C19.4218 6.30085 19.4293 6.27975 19.4359 6.25835L18.719 6.03778ZM18.9218 7.9863L19.571 7.61082L19.5702 7.60946L18.9218 7.9863ZM18.9385 8.01523L19.5885 7.64111L19.5878 7.63976L18.9385 8.01523ZM20.5229 9.16226L20.4216 9.90538L20.5229 9.16226ZM21.8619 9.44109L21.5387 10.1179L21.8619 9.44109ZM22.9046 10.6356L22.1904 10.8645V10.8645L22.9046 10.6356ZM22.9046 13.3644L22.1904 13.1356V13.1356L22.9046 13.3644ZM21.8619 14.559L22.1852 15.2358L22.1852 15.2358L21.8619 14.559ZM20.5229 14.8378L20.4216 14.0947H20.4216L20.5229 14.8378ZM18.9385 15.9849L19.5878 16.3603L19.5885 16.359L18.9385 15.9849ZM18.9218 16.0138L19.5702 16.3906L19.571 16.3892L18.9218 16.0138ZM18.7191 17.9623L19.4133 17.6785V17.6785L18.7191 17.9623ZM19.1471 19.2613L19.8948 19.2028V19.2028L19.1471 19.2613ZM18.6339 20.7616L19.1892 21.2658V21.2657L18.6339 20.7616ZM17.5 21.5264L17.875 22.1759L17.5 21.5264ZM16.2707 22.126L16.1118 21.393H16.1118L16.2707 22.126ZM14.7148 21.8203L15.1393 21.202H15.1393L14.7148 21.8203ZM13.8039 20.8001L14.3968 20.3407L13.8039 20.8001ZM12.0161 20L12.0168 20.75L12.0175 20.75L12.0161 20ZM12 20L11.9993 20.75L12.0007 20.75L12 20ZM11.9837 20L11.9822 20.75L11.983 20.75L11.9837 20ZM10.1961 20.7999L9.60323 20.3406L9.60323 20.3406L10.1961 20.7999ZM9.28515 21.8201L9.70964 22.4384L9.70965 22.4384L9.28515 21.8201ZM7.72928 22.1259L7.88824 21.3929H7.88823L7.72928 22.1259ZM4.81078 21.2656C5.11916 21.6053 5.55685 21.8477 6.125 22.1758L6.875 20.8767C6.21135 20.4936 6.03315 20.3805 5.92135 20.2573L4.81078 21.2656ZM4.10519 19.2027C4.04612 19.9582 4.30141 20.7046 4.81078 21.2656L5.92135 20.2573C5.68982 20.0023 5.57378 19.663 5.60063 19.3196L4.10519 19.2027ZM4.58671 17.6783C4.33846 18.2856 4.14096 18.7453 4.10519 19.2027L5.60063 19.3196C5.61359 19.1538 5.6852 18.9553 5.97517 18.2459L4.58671 17.6783ZM4.42978 16.3906C4.68778 16.8346 4.73859 17.3068 4.58671 17.6783L5.97517 18.2459C6.34341 17.3452 6.15931 16.3814 5.72669 15.637L4.42978 16.3906ZM4.41225 16.3603L4.429 16.3893L5.72748 15.6383L5.71073 15.6094L4.41225 16.3603ZM3.37574 15.5809C3.77258 15.6351 4.15563 15.9145 4.41147 16.359L5.71152 15.6107C5.28285 14.8659 4.54121 14.226 3.57841 14.0947L3.37574 15.5809ZM1.81485 15.2358C2.22882 15.4335 2.72572 15.4923 3.37574 15.5809L3.57841 14.0947C2.81913 13.9912 2.61138 13.9539 2.46129 13.8822L1.81485 15.2358ZM0.381112 13.5933C0.612306 14.3149 1.13104 14.9092 1.81485 15.2358L2.46129 13.8822C2.15047 13.7338 1.91468 13.4636 1.8096 13.1356L0.381112 13.5933ZM0.25 12C0.25 12.6561 0.241147 13.1564 0.381112 13.5933L1.8096 13.1356C1.75885 12.9772 1.75 12.7663 1.75 12H0.25ZM0.381112 10.4068C0.241147 10.8437 0.25 11.344 0.25 12H1.75C1.75 11.2337 1.75885 11.0229 1.8096 10.8645L0.381112 10.4068ZM1.81485 8.76431C1.13104 9.09089 0.612306 9.68516 0.381112 10.4068L1.8096 10.8645C1.91469 10.5364 2.15047 10.2663 2.46129 10.1179L1.81485 8.76431ZM3.37574 8.41913C2.72572 8.50777 2.22882 8.5666 1.81485 8.76431L2.46129 10.1179C2.61138 10.0462 2.81913 10.0089 3.57841 9.90538L3.37574 8.41913ZM4.41146 7.64112C4.15562 8.08563 3.77258 8.36502 3.37574 8.41913L3.57841 9.90538C4.54121 9.77409 5.28285 9.13415 5.71151 8.38935L4.41146 7.64112ZM4.42899 7.61079L4.41224 7.63975L5.71073 8.39072L5.72748 8.36176L4.42899 7.61079ZM4.58671 6.32173C4.73859 6.69325 4.68778 7.16547 4.42978 7.60944L5.72669 8.36311C6.15931 7.61867 6.34341 6.65491 5.97517 5.75413L4.58671 6.32173ZM4.59158 6.33336L4.59158 6.33337L5.9703 5.74249L5.97029 5.74248L4.59158 6.33336ZM4.57609 6.29421L4.57609 6.29423L5.98578 5.78161L5.98577 5.7816L4.57609 6.29421ZM4.10519 4.79737C4.14096 5.25473 4.33846 5.71447 4.5867 6.32171L5.97516 5.7541C5.68519 5.04479 5.61359 4.84625 5.60063 4.68044L4.10519 4.79737ZM4.81078 2.73447C4.30141 3.29551 4.04612 4.04189 4.10519 4.79737L5.60063 4.68044C5.57378 4.33703 5.68982 3.99777 5.92135 3.74275L4.81078 2.73447ZM6.125 1.82431C5.55685 2.15233 5.11916 2.39481 4.81078 2.73447L5.92135 3.74275C6.03315 3.61961 6.21135 3.5065 6.875 3.12335L6.125 1.82431ZM6.08397 1.84979L6.08397 1.84979L6.91602 3.09787L6.91602 3.09786L6.08397 1.84979ZM6.13752 1.81724L6.13751 1.81724L6.86249 3.13041L6.86249 3.13041L6.13752 1.81724ZM7.57032 1.14125C7.12198 1.23848 6.69315 1.49629 6.12501 1.8243L6.875 3.12334C7.53864 2.74019 7.72569 2.64242 7.88824 2.60717L7.57032 1.14125ZM9.70964 1.56164C9.08492 1.13274 8.31089 0.980637 7.57032 1.14125L7.88824 2.60717C8.22486 2.53416 8.57669 2.6033 8.86066 2.79826L9.70964 1.56164ZM10.789 2.74083C10.3872 2.22221 10.0879 1.8213 9.70964 1.56164L8.86066 2.79826C8.99777 2.89239 9.13392 3.05368 9.60323 3.65947L10.789 2.74083ZM11.9822 3.25005C11.4695 3.25108 11.0352 3.05855 10.789 2.74083L9.60323 3.65947C10.1985 4.42787 11.1239 4.75177 11.9852 4.75005L11.9822 3.25005ZM11.9992 3.25004L11.9829 3.25005L11.9844 4.75005L12.0008 4.75004L11.9992 3.25004ZM12.0168 3.25005L12.0007 3.25004L11.9993 4.75004L12.0153 4.75005L12.0168 3.25005ZM13.211 2.74068C12.9648 3.05849 12.5303 3.25106 12.0175 3.25005L12.0146 4.75005C12.8759 4.75174 13.8014 4.42781 14.3968 3.65932L13.211 2.74068ZM14.2903 1.56149C13.9121 1.82115 13.6127 2.22206 13.211 2.74068L14.3968 3.65932C14.8661 3.05353 15.0022 2.89225 15.1393 2.79811L14.2903 1.56149ZM16.4297 1.1411C15.6891 0.98049 14.9151 1.13259 14.2903 1.56149L15.1393 2.79811C15.4233 2.60315 15.7751 2.53402 16.1118 2.60702L16.4297 1.1411ZM17.875 1.82416C17.3068 1.49614 16.878 1.23833 16.4297 1.1411L16.1118 2.60702C16.2743 2.64227 16.4614 2.74005 17.125 3.1232L17.875 1.82416ZM19.1892 2.73432C18.8808 2.39466 18.4431 2.15218 17.875 1.82416L17.125 3.1232C17.7886 3.50635 17.9668 3.61946 18.0786 3.7426L19.1892 2.73432ZM19.8948 4.79722C19.9539 4.04174 19.6986 3.29537 19.1892 2.73432L18.0786 3.7426C18.3102 3.99763 18.4262 4.33689 18.3994 4.68029L19.8948 4.79722ZM19.4133 6.32157C19.6615 5.71432 19.859 5.25459 19.8948 4.79722L18.3994 4.68029C18.3864 4.8461 18.3148 5.04465 18.0248 5.75396L19.4133 6.32157ZM19.4359 6.25835L19.4359 6.25833L18.0022 5.8172L18.0022 5.81722L19.4359 6.25835ZM19.5702 7.60946C19.3122 7.16544 19.2614 6.69316 19.4133 6.32158L18.0248 5.75398C17.6566 6.65482 17.8407 7.61864 18.2733 8.36313L19.5702 7.60946ZM19.5878 7.63976L19.571 7.61082L18.2725 8.36177L18.2893 8.3907L19.5878 7.63976ZM20.6243 8.41914C20.2274 8.36502 19.8444 8.08563 19.5885 7.64111L18.2885 8.38935C18.7171 9.13415 19.4588 9.77409 20.4216 9.90538L20.6243 8.41914ZM22.1852 8.76431C21.7712 8.5666 21.2743 8.50777 20.6243 8.41914L20.4216 9.90538C21.1809 10.0089 21.3886 10.0462 21.5387 10.1179L22.1852 8.76431ZM23.6189 10.4068C23.3877 9.68516 22.869 9.09089 22.1852 8.76431L21.5387 10.1179C21.8495 10.2663 22.0853 10.5364 22.1904 10.8645L23.6189 10.4068ZM23.75 12C23.75 11.344 23.7589 10.8437 23.6189 10.4068L22.1904 10.8645C22.2411 11.0229 22.25 11.2337 22.25 12H23.75ZM23.6189 13.5933C23.7589 13.1564 23.75 12.6561 23.75 12H22.25C22.25 12.7663 22.2411 12.9772 22.1904 13.1356L23.6189 13.5933ZM22.1852 15.2358C22.869 14.9092 23.3877 14.3149 23.6189 13.5933L22.1904 13.1356C22.0853 13.4636 21.8495 13.7338 21.5387 13.8822L22.1852 15.2358ZM20.6243 15.5809C21.2743 15.4923 21.7712 15.4335 22.1852 15.2358L21.5387 13.8822C21.3886 13.9539 21.1809 13.9912 20.4216 14.0947L20.6243 15.5809ZM19.5885 16.359C19.8444 15.9145 20.2274 15.6351 20.6243 15.5809L20.4216 14.0947C19.4588 14.226 18.7171 14.8659 18.2885 15.6107L19.5885 16.359ZM19.571 16.3892L19.5878 16.3603L18.2892 15.6094L18.2725 15.6383L19.571 16.3892ZM19.4133 17.6785C19.2614 17.3069 19.3122 16.8346 19.5702 16.3906L18.2733 15.6369C17.8407 16.3814 17.6566 17.3453 18.0248 18.2461L19.4133 17.6785ZM19.8948 19.2028C19.859 18.7455 19.6615 18.2857 19.4133 17.6785L18.0248 18.2461C18.3148 18.9554 18.3864 19.154 18.3994 19.3198L19.8948 19.2028ZM19.1892 21.2657C19.6986 20.7047 19.9539 19.9583 19.8948 19.2028L18.3994 19.3198C18.4262 19.6632 18.3102 20.0024 18.0786 20.2575L19.1892 21.2657ZM17.875 22.1759C18.4431 21.8479 18.8808 21.6054 19.1892 21.2658L18.0786 20.2575C17.9668 20.3806 17.7886 20.4937 17.125 20.8769L17.875 22.1759ZM16.4297 22.859C16.878 22.7617 17.3069 22.5039 17.875 22.1759L17.125 20.8769C16.4614 21.26 16.2743 21.3578 16.1118 21.393L16.4297 22.859ZM14.2903 22.4386C14.9151 22.8675 15.6891 23.0196 16.4297 22.859L16.1118 21.393C15.7751 21.4661 15.4233 21.3969 15.1393 21.202L14.2903 22.4386ZM13.211 21.2594C13.6127 21.778 13.9121 22.1789 14.2903 22.4386L15.1393 21.202C15.0022 21.1078 14.8661 20.9465 14.3968 20.3407L13.211 21.2594ZM12.0175 20.75C12.5303 20.749 12.9648 20.9416 13.211 21.2594L14.3968 20.3407C13.8014 19.5723 12.8759 19.2483 12.0146 19.25L12.0175 20.75ZM12.0007 20.75L12.0168 20.75L12.0153 19.25L11.9993 19.25L12.0007 20.75ZM11.983 20.75L11.9993 20.75L12.0007 19.25L11.9844 19.25L11.983 20.75ZM10.789 21.2592C11.0352 20.9415 11.4695 20.749 11.9822 20.75L11.9852 19.25C11.1239 19.2483 10.1985 19.5722 9.60323 20.3406L10.789 21.2592ZM9.70965 22.4384C10.0879 22.1788 10.3872 21.7779 10.789 21.2592L9.60323 20.3406C9.13392 20.9464 8.99777 21.1077 8.86066 21.2018L9.70965 22.4384ZM7.57032 22.8588C8.31089 23.0194 9.08492 22.8673 9.70964 22.4384L8.86066 21.2018C8.57669 21.3968 8.22486 21.4659 7.88824 21.3929L7.57032 22.8588ZM6.125 22.1758C6.69314 22.5038 7.12198 22.7616 7.57032 22.8588L7.88823 21.3929C7.72569 21.3576 7.53864 21.2599 6.875 20.8767L6.125 22.1758ZM14.25 12C14.25 13.2426 13.2426 14.25 12 14.25V15.75C14.0711 15.75 15.75 14.0711 15.75 12H14.25ZM12 9.75C13.2426 9.75 14.25 10.7574 14.25 12H15.75C15.75 9.92893 14.0711 8.25 12 8.25V9.75ZM9.75 12C9.75 10.7574 10.7574 9.75 12 9.75V8.25C9.92893 8.25 8.25 9.92893 8.25 12H9.75ZM12 14.25C10.7574 14.25 9.75 13.2426 9.75 12H8.25C8.25 14.0711 9.92893 15.75 12 15.75V14.25Z" fill="#666666"/>
</svg>
